<mxfile host="app.diagrams.net" modified="2024-05-17T16:43:57.478Z" agent="Mozilla/5.0 (Windows NT 10.0; Win64; x64) AppleWebKit/537.36 (KHTML, like Gecko) Chrome/120.0.0.0 Safari/537.36 Edg/120.0.0.0" etag="rv2t6Y5KHaKGu6mqNIqr" version="24.4.4" type="device">
  <diagram name="第 1 页" id="e8Cp2b_pd-MhSCG50EqK">
    <mxGraphModel dx="1066" dy="606" grid="0" gridSize="10" guides="1" tooltips="1" connect="1" arrows="1" fold="1" page="1" pageScale="1" pageWidth="827" pageHeight="1169" background="#000000" math="0" shadow="0">
      <root>
        <mxCell id="0" />
        <mxCell id="1" parent="0" />
        <mxCell id="g9Og03jqJjSpU7ip5E_3-1" value="&lt;font color=&quot;#ffffff&quot;&gt;user&lt;/font&gt;" style="rounded=0;whiteSpace=wrap;html=1;fillColor=#000000;strokeColor=#ffffff;" vertex="1" parent="1">
          <mxGeometry x="62" y="51" width="120" height="25" as="geometry" />
        </mxCell>
        <mxCell id="g9Og03jqJjSpU7ip5E_3-2" value="&lt;font color=&quot;#ffffff&quot;&gt;&lt;u&gt;user_id&lt;/u&gt;&lt;/font&gt;" style="rounded=0;whiteSpace=wrap;html=1;fillColor=#000000;strokeColor=#ffffff;align=left;" vertex="1" parent="1">
          <mxGeometry x="62" y="76" width="120" height="24" as="geometry" />
        </mxCell>
        <mxCell id="g9Og03jqJjSpU7ip5E_3-3" value="&lt;font color=&quot;#ffffff&quot;&gt;item_comments&lt;/font&gt;" style="rounded=0;whiteSpace=wrap;html=1;fillColor=#000000;strokeColor=#ffffff;" vertex="1" parent="1">
          <mxGeometry x="248" y="51" width="120" height="25" as="geometry" />
        </mxCell>
        <mxCell id="g9Og03jqJjSpU7ip5E_3-4" value="&lt;font color=&quot;#ffffff&quot;&gt;&lt;u&gt;comment_id&lt;/u&gt;&lt;/font&gt;&lt;div&gt;&lt;font color=&quot;#ffffff&quot;&gt;item_id&lt;/font&gt;&lt;/div&gt;&lt;div&gt;&lt;font color=&quot;#ffffff&quot;&gt;user_id&lt;/font&gt;&lt;/div&gt;&lt;div&gt;&lt;font color=&quot;#ffffff&quot;&gt;content&lt;/font&gt;&lt;/div&gt;&lt;div&gt;&lt;font color=&quot;#ffffff&quot;&gt;date&lt;/font&gt;&lt;/div&gt;" style="rounded=0;whiteSpace=wrap;html=1;fillColor=#000000;strokeColor=#ffffff;align=left;" vertex="1" parent="1">
          <mxGeometry x="248" y="76" width="120" height="78" as="geometry" />
        </mxCell>
        <mxCell id="g9Og03jqJjSpU7ip5E_3-5" value="&lt;font color=&quot;#ffffff&quot;&gt;user_activity&lt;/font&gt;" style="rounded=0;whiteSpace=wrap;html=1;fillColor=#000000;strokeColor=#ffffff;" vertex="1" parent="1">
          <mxGeometry x="248" y="226" width="120" height="25" as="geometry" />
        </mxCell>
        <mxCell id="g9Og03jqJjSpU7ip5E_3-6" value="&lt;font color=&quot;#ffffff&quot;&gt;&lt;u&gt;activity_id&lt;/u&gt;&lt;/font&gt;&lt;div&gt;&lt;font color=&quot;#ffffff&quot;&gt;user_id&lt;/font&gt;&lt;/div&gt;&lt;div&gt;&lt;font color=&quot;#ffffff&quot;&gt;activity_type&lt;/font&gt;&lt;/div&gt;&lt;div&gt;&lt;font color=&quot;#ffffff&quot;&gt;score&lt;/font&gt;&lt;/div&gt;&lt;div&gt;&lt;font color=&quot;#ffffff&quot;&gt;date&lt;/font&gt;&lt;/div&gt;" style="rounded=0;whiteSpace=wrap;html=1;fillColor=#000000;strokeColor=#ffffff;align=left;" vertex="1" parent="1">
          <mxGeometry x="248" y="251" width="120" height="78" as="geometry" />
        </mxCell>
        <mxCell id="g9Og03jqJjSpU7ip5E_3-7" value="&lt;font color=&quot;#ffffff&quot;&gt;user_points&lt;/font&gt;" style="rounded=0;whiteSpace=wrap;html=1;fillColor=#000000;strokeColor=#ffffff;" vertex="1" parent="1">
          <mxGeometry x="248" y="381" width="120" height="25" as="geometry" />
        </mxCell>
        <mxCell id="g9Og03jqJjSpU7ip5E_3-8" value="&lt;font color=&quot;#ffffff&quot;&gt;&lt;u&gt;user_id&lt;/u&gt;&lt;/font&gt;&lt;div&gt;&lt;font color=&quot;#ffffff&quot;&gt;points&lt;/font&gt;&lt;/div&gt;&lt;div&gt;&lt;font color=&quot;#ffffff&quot;&gt;date&lt;/font&gt;&lt;/div&gt;" style="rounded=0;whiteSpace=wrap;html=1;fillColor=#000000;strokeColor=#ffffff;align=left;" vertex="1" parent="1">
          <mxGeometry x="248" y="406" width="120" height="48" as="geometry" />
        </mxCell>
        <mxCell id="g9Og03jqJjSpU7ip5E_3-9" value="" style="endArrow=classic;html=1;rounded=0;entryX=1;entryY=0;entryDx=0;entryDy=0;strokeColor=#ffffff;" edge="1" parent="1" target="g9Og03jqJjSpU7ip5E_3-2">
          <mxGeometry width="50" height="50" relative="1" as="geometry">
            <mxPoint x="247" y="118" as="sourcePoint" />
            <mxPoint x="248" y="128" as="targetPoint" />
            <Array as="points">
              <mxPoint x="216" y="118" />
              <mxPoint x="216" y="76" />
            </Array>
          </mxGeometry>
        </mxCell>
        <mxCell id="g9Og03jqJjSpU7ip5E_3-11" value="" style="endArrow=classic;html=1;rounded=0;entryX=1;entryY=0;entryDx=0;entryDy=0;strokeColor=#ffffff;" edge="1" parent="1">
          <mxGeometry width="50" height="50" relative="1" as="geometry">
            <mxPoint x="247" y="276" as="sourcePoint" />
            <mxPoint x="182" y="89" as="targetPoint" />
            <Array as="points">
              <mxPoint x="212" y="276" />
              <mxPoint x="210" y="89" />
            </Array>
          </mxGeometry>
        </mxCell>
        <mxCell id="g9Og03jqJjSpU7ip5E_3-12" value="" style="endArrow=classic;html=1;rounded=0;entryX=1;entryY=0;entryDx=0;entryDy=0;strokeColor=#ffffff;" edge="1" parent="1">
          <mxGeometry width="50" height="50" relative="1" as="geometry">
            <mxPoint x="247" y="418" as="sourcePoint" />
            <mxPoint x="179" y="100" as="targetPoint" />
            <Array as="points">
              <mxPoint x="200" y="418" />
              <mxPoint x="202" y="100" />
            </Array>
          </mxGeometry>
        </mxCell>
        <mxCell id="g9Og03jqJjSpU7ip5E_3-14" value="&lt;font color=&quot;#ffffff&quot;&gt;lost_item&lt;/font&gt;" style="rounded=0;whiteSpace=wrap;html=1;fillColor=#000000;strokeColor=#ffffff;" vertex="1" parent="1">
          <mxGeometry x="421" y="51" width="120" height="25" as="geometry" />
        </mxCell>
        <mxCell id="g9Og03jqJjSpU7ip5E_3-15" value="&lt;font color=&quot;#ffffff&quot;&gt;&lt;u&gt;item_id&lt;/u&gt;&lt;/font&gt;" style="rounded=0;whiteSpace=wrap;html=1;fillColor=#000000;strokeColor=#ffffff;align=left;" vertex="1" parent="1">
          <mxGeometry x="421" y="76" width="120" height="23" as="geometry" />
        </mxCell>
        <mxCell id="g9Og03jqJjSpU7ip5E_3-16" value="&lt;font color=&quot;#ffffff&quot;&gt;found_item&lt;/font&gt;" style="rounded=0;whiteSpace=wrap;html=1;fillColor=#000000;strokeColor=#ffffff;" vertex="1" parent="1">
          <mxGeometry x="421" y="148" width="120" height="25" as="geometry" />
        </mxCell>
        <mxCell id="g9Og03jqJjSpU7ip5E_3-17" value="&lt;font color=&quot;#ffffff&quot;&gt;&lt;u&gt;item_id&lt;/u&gt;&lt;/font&gt;" style="rounded=0;whiteSpace=wrap;html=1;fillColor=#000000;strokeColor=#ffffff;align=left;" vertex="1" parent="1">
          <mxGeometry x="421" y="173" width="120" height="23" as="geometry" />
        </mxCell>
        <mxCell id="g9Og03jqJjSpU7ip5E_3-19" value="" style="endArrow=classic;html=1;rounded=0;entryX=0;entryY=0.5;entryDx=0;entryDy=0;strokeColor=#ffffff;exitX=1;exitY=0.25;exitDx=0;exitDy=0;" edge="1" parent="1" source="g9Og03jqJjSpU7ip5E_3-4" target="g9Og03jqJjSpU7ip5E_3-15">
          <mxGeometry width="50" height="50" relative="1" as="geometry">
            <mxPoint x="430" y="133" as="sourcePoint" />
            <mxPoint x="365" y="91" as="targetPoint" />
            <Array as="points">
              <mxPoint x="385" y="96" />
              <mxPoint x="385" y="88" />
            </Array>
          </mxGeometry>
        </mxCell>
        <mxCell id="g9Og03jqJjSpU7ip5E_3-20" value="" style="endArrow=classic;html=1;rounded=0;entryX=0;entryY=0.5;entryDx=0;entryDy=0;strokeColor=#ffffff;exitX=1;exitY=0.25;exitDx=0;exitDy=0;" edge="1" parent="1" target="g9Og03jqJjSpU7ip5E_3-17">
          <mxGeometry width="50" height="50" relative="1" as="geometry">
            <mxPoint x="368" y="102" as="sourcePoint" />
            <mxPoint x="421" y="94" as="targetPoint" />
            <Array as="points">
              <mxPoint x="385" y="102" />
              <mxPoint x="385" y="186" />
            </Array>
          </mxGeometry>
        </mxCell>
      </root>
    </mxGraphModel>
  </diagram>
</mxfile>
